# xmcd
#
# Track frame offsets:
#	150
#	18237
#	44337
#	78237
#	98187
#	113650
#	133237
#	164962
#	202925
#	217175
#	246737
#	270787
#	291825
#
# Disc length: 4187
#
# Revision: 1
# Processed by: cddbd v1.5.1PL0 Copyright (c) Steve Scherf et al.
# Submitted via: CDex 1.50
# Normalized: r0:DSETVAR1,TDELIM( - )
#
DISCID=c010590d
DTITLE=Various Artist - Jazz Bible - all music guide to jazz Vol.2 from L to Z
DYEAR=1900
DGENRE=Jazz
TTITLE0=Stephane Grappelli and McCoy Tyner - How High The Moon
TTITLE1=Paul Gonsalves and Roy Eldridge - Stain Doll
TTITLE2=Art Pepper - Over The Rainbow
TTITLE3=Milt Jackson - Days of Wine and Roses
TTITLE4=Sonny Rollins - Just Once
TTITLE5=Hank Crawford - Saving All My Love For You
TTITLE6=Turk Mauro - Someone To Watch Over Me
TTITLE7=Joe Locke - The Sound Of Silence
TTITLE8=Buddy Collette - I'll Remember April
TTITLE9=Wynton Kelly - Softly, As In Morning Sunrise
TTITLE10=Vince Guaraldi - Moon River
TTITLE11=Richie Cole - When You Wish Upon A Star
TTITLE12=John Coltrane - Like Someone In Love
EXTD=
EXTT0=
EXTT1=
EXTT2=
EXTT3=
EXTT4=
EXTT5=
EXTT6=
EXTT7=
EXTT8=
EXTT9=
EXTT10=
EXTT11=
EXTT12=
PLAYORDER=
